<svg width="20" height="22" viewBox="0 0 20 22" fill="none" xmlns="http://www.w3.org/2000/svg">
<path d="M0 11.9762H6.16593V9.92089H0V0.513739C1.52868e-05 0.424451 0.0232973 0.336708 0.0675513 0.259158C0.111805 0.181609 0.175504 0.116929 0.252368 0.0714955C0.329232 0.0260615 0.416609 0.0014412 0.505887 6.13731e-05C0.595164 -0.00131846 0.68326 0.0205898 0.761492 0.0636267L19.7341 10.4984C19.8146 10.5428 19.8818 10.608 19.9286 10.6871C19.9754 10.7663 20.0001 10.8566 20.0001 10.9485C20.0001 11.0405 19.9754 11.1308 19.9286 11.21C19.8818 11.2891 19.8146 11.3543 19.7341 11.3987L0.761492 21.8335C0.68326 21.8765 0.595164 21.8984 0.505887 21.897C0.416609 21.8956 0.329232 21.871 0.252368 21.8256C0.175504 21.7802 0.111805 21.7155 0.0675513 21.6379C0.0232973 21.5604 1.52868e-05 21.4726 0 21.3833V11.9762Z" fill="white"/>
</svg>
