<svg width="153" height="133" viewBox="0 0 153 133" fill="none" xmlns="http://www.w3.org/2000/svg">
<path fill-rule="evenodd" clip-rule="evenodd" d="M130.578 130.522C131.007 130.944 131.017 131.638 130.594 132.067C130.17 132.495 129.484 132.484 129.066 132.05L126.41 129.287C126.024 128.886 126.034 128.246 126.425 127.85C126.815 127.455 127.448 127.446 127.845 127.835L130.578 130.522ZM7.22361 107.553C6.67401 107.793 6.03576 107.537 5.80645 106.978C5.57716 106.419 5.84902 105.781 6.40515 105.557L9.94718 104.131C10.4602 103.924 11.0411 104.178 11.2527 104.694C11.4642 105.21 11.231 105.804 10.724 106.025L7.22361 107.553ZM146.595 105.557C147.151 105.781 147.423 106.419 147.194 106.978C146.964 107.537 146.326 107.793 145.776 107.553L142.276 106.025C141.769 105.804 141.536 105.21 141.747 104.694C141.959 104.178 142.54 103.924 143.053 104.131L146.595 105.557ZM1.09525 78.4474C0.49455 78.4559 4.75679e-06 77.9703 4.8099e-06 77.3628C4.86301e-06 76.7553 0.494534 76.2697 1.09522 76.2782L4.89755 76.3318C5.45282 76.3396 5.89596 76.8012 5.89596 77.3628C5.89596 77.9244 5.45282 78.386 4.89755 78.3938L1.09525 78.4474ZM153 77.3628C153 77.9703 152.505 78.4559 151.905 78.4474L148.102 78.3938C147.547 78.386 147.104 77.9244 147.104 77.3628C147.104 76.8012 147.547 76.3396 148.102 76.3318L151.905 76.2782C152.505 76.2697 153 76.7553 153 77.3628ZM6.40515 49.1689C5.84903 48.945 5.57717 48.3066 5.80646 47.7474C6.03576 47.1883 6.67402 46.9331 7.22362 47.1729L10.724 48.7003C11.231 48.9216 11.4642 49.5157 11.2527 50.0315C11.0412 50.5473 10.4602 50.8013 9.94718 50.5948L6.40515 49.1689ZM145.776 47.1729C146.326 46.9331 146.964 47.1883 147.194 47.7475C147.423 48.3066 147.151 48.945 146.595 49.1689L143.053 50.5948C142.54 50.8013 141.959 50.5473 141.747 50.0315C141.536 49.5157 141.769 48.9216 142.276 48.7003L145.776 47.1729ZM129.066 22.6754C129.484 22.2414 130.17 22.2311 130.594 22.6591C131.017 23.0871 131.007 23.7816 130.578 24.2035L127.845 26.8904C127.448 27.28 126.815 27.2704 126.425 26.8752C126.034 26.48 126.024 25.8398 126.41 25.439L129.066 22.6754ZM22.4225 24.2035C21.9933 23.7816 21.9831 23.0871 22.4063 22.6591C22.8296 22.2311 23.5163 22.2414 23.9336 22.6754L26.5904 25.439C26.9757 25.8398 26.9662 26.48 26.5754 26.8752C26.1846 27.2704 25.5515 27.28 25.1552 26.8904L22.4225 24.2035ZM46.6468 7.30517C46.4096 6.74938 46.662 6.10393 47.2149 5.87205C47.7678 5.64016 48.3991 5.91507 48.6205 6.47748L50.0305 10.0595C50.2347 10.5783 49.9835 11.1658 49.4735 11.3797C48.9634 11.5936 48.3759 11.3578 48.1572 10.8451L46.6468 7.30517ZM104.38 6.47747C104.601 5.91507 105.232 5.64017 105.785 5.87206C106.338 6.10394 106.59 6.74939 106.353 7.30518L104.843 10.8451C104.624 11.3578 104.037 11.5936 103.527 11.3797C103.017 11.1658 102.765 10.5782 102.97 10.0595L104.38 6.47747ZM76.5 0.000100307C77.1008 0.000100359 77.5809 0.500209 77.5725 1.10768L77.5195 4.95289C77.5118 5.51442 77.0553 5.96256 76.5 5.96256C75.9447 5.96256 75.4882 5.51441 75.4805 4.95287L75.4275 1.10769C75.4191 0.500224 75.8993 0.000100254 76.5 0.000100307Z" fill="#0063A8"/>
</svg>
