<svg width="35" height="35" viewBox="0 0 35 35" fill="none" xmlns="http://www.w3.org/2000/svg">
<circle cx="17.5" cy="17.4999" r="16.1085" stroke="#0063A8" stroke-width="2.76396" stroke-dasharray="0.98 8.39"/>
<mask id="path-2-inside-1_4492_1164" fill="white">
<path fill-rule="evenodd" clip-rule="evenodd" d="M16.8848 6.23645L9.93214 19.4805C9.58021 20.1509 10.0664 20.9552 10.8236 20.9552H14.5314L14.3503 27.5126C14.2913 29.6451 17.1543 30.393 18.1459 28.5041L25.0985 15.2601C25.4505 14.5897 24.9643 13.7853 24.2071 13.7853H20.4992L20.6804 7.22799C20.7393 5.09546 17.8764 4.34756 16.8848 6.23645Z"/>
</mask>
<path fill-rule="evenodd" clip-rule="evenodd" d="M16.8848 6.23645L9.93214 19.4805C9.58021 20.1509 10.0664 20.9552 10.8236 20.9552H14.5314L14.3503 27.5126C14.2913 29.6451 17.1543 30.393 18.1459 28.5041L25.0985 15.2601C25.4505 14.5897 24.9643 13.7853 24.2071 13.7853H20.4992L20.6804 7.22799C20.7393 5.09546 17.8764 4.34756 16.8848 6.23645Z" fill="#FFDF4E"/>
<path d="M9.93214 19.4805L11.1693 20.13H11.1693L9.93214 19.4805ZM16.8848 6.23645L18.1219 6.88592V6.88592L16.8848 6.23645ZM14.5314 20.9552L15.9282 20.9938L15.9679 19.558H14.5314V20.9552ZM14.3503 27.5126L12.9535 27.474L14.3503 27.5126ZM18.1459 28.5041L16.9087 27.8547L18.1459 28.5041ZM25.0985 15.2601L26.3357 15.9095L25.0985 15.2601ZM20.4992 13.7853L19.1025 13.7467L19.0628 15.1826H20.4992V13.7853ZM20.6804 7.22799L22.0771 7.26659L20.6804 7.22799ZM11.1693 20.13L18.1219 6.88592L15.6476 5.58699L8.69498 18.831L11.1693 20.13ZM10.8236 19.558C11.1172 19.558 11.3058 19.87 11.1693 20.13L8.69498 18.831C7.85462 20.4318 9.0156 22.3525 10.8236 22.3525V19.558ZM14.5314 19.558H10.8236V22.3525H14.5314V19.558ZM15.747 27.5512L15.9282 20.9938L13.1347 20.9167L12.9535 27.474L15.747 27.5512ZM16.9087 27.8547C16.6052 28.4328 15.729 28.2039 15.747 27.5512L12.9535 27.474C12.8537 31.0864 17.7034 32.3533 19.3831 29.1536L16.9087 27.8547ZM23.8614 14.6106L16.9087 27.8547L19.3831 29.1536L26.3357 15.9095L23.8614 14.6106ZM24.2071 15.1826C23.9134 15.1826 23.7249 14.8706 23.8614 14.6106L26.3357 15.9095C27.176 14.3088 26.0151 12.3881 24.2071 12.3881V15.1826ZM20.4992 15.1826H24.2071V12.3881H20.4992V15.1826ZM19.2837 7.1894L19.1025 13.7467L21.896 13.8239L22.0771 7.26659L19.2837 7.1894ZM18.1219 6.88592C18.4254 6.30779 19.3017 6.53668 19.2837 7.1894L22.0771 7.26659C22.177 3.65423 17.3273 2.38732 15.6476 5.58699L18.1219 6.88592Z" fill="#0063A8" mask="url(#path-2-inside-1_4492_1164)"/>
</svg>
